<svg width="21" height="20" viewBox="0 0 21 20" fill="none" xmlns="http://www.w3.org/2000/svg">
<g clip-path="url(#clip0_62_128)">
<mask id="mask0_62_128" style="mask-type:luminance" maskUnits="userSpaceOnUse" x="1" y="0" width="20" height="20">
<path d="M21 20H1V0H21V20Z" fill="white"/>
</mask>
<g mask="url(#mask0_62_128)">
<path d="M16 6.66016H11.332L12.2695 3.86719C12.3476 3.60677 12.3672 3.3431 12.3281 3.07617C12.289 2.80925 12.1914 2.57161 12.0351 2.36328C11.8789 2.14193 11.6803 1.9694 11.4394 1.8457C11.1985 1.722 10.9479 1.66016 10.6875 1.66016H9.33984C9.20963 1.66016 9.08919 1.6862 8.97851 1.73828C8.86784 1.79036 8.77344 1.86849 8.69531 1.97266L4.78906 6.66016H2.67969C2.21094 6.66016 1.8138 6.82292 1.48828 7.14844C1.16276 7.47396 1 7.87109 1 8.33984V15.8398C1 16.2956 1.16276 16.6862 1.48828 17.0117C1.8138 17.3372 2.21094 17.5 2.67969 17.5H13.7539C14.1054 17.5 14.4244 17.3991 14.7109 17.1973C14.9974 16.9954 15.1992 16.7383 15.3164 16.4258L17.6211 10.293C17.6341 10.2409 17.6471 10.1921 17.6601 10.1465C17.6731 10.1009 17.6797 10.0521 17.6797 10V8.33984C17.6797 7.87109 17.5169 7.47396 17.1914 7.14844C16.8659 6.82292 16.4687 6.66016 16 6.66016ZM2.67969 8.33984H4.33984V15.8398H2.67969V8.33984Z" fill="white"/>
</g>
</g>
<defs>
<clipPath id="clip0_62_128">
<rect width="21" height="20" fill="white"/>
</clipPath>
</defs>
</svg>
